<svg width="690" height="270" viewBox="0 0 690 270" fill="none" xmlns="http://www.w3.org/2000/svg">
<path d="M326.254 117.3C326.867 118.643 327.275 120.131 327.48 121.766C327.684 123.371 327.786 125.253 327.786 127.413V156.655H320.869V149.301C317.105 155.079 311.268 157.969 303.359 157.969C299.944 157.969 297.026 157.341 294.604 156.086C292.181 154.802 290.357 153.095 289.132 150.964C287.906 148.834 287.293 146.47 287.293 143.873C287.293 136.898 291.16 132.272 298.894 129.995C301.17 129.383 303.782 128.843 306.73 128.376C309.677 127.909 313.209 127.398 317.323 126.844L320.125 126.45C320.008 122.626 319.045 119.825 317.236 118.045C315.427 116.235 312.508 115.33 308.481 115.33C305.504 115.33 302.95 116.016 300.82 117.388C298.719 118.73 297.259 120.802 296.442 123.604L289.044 121.372C290.182 117.14 292.4 113.871 295.698 111.566C299.025 109.231 303.315 108.064 308.568 108.064C312.917 108.064 316.608 108.852 319.644 110.428C322.708 111.974 324.911 114.265 326.254 117.3ZM304.541 151.446C307.255 151.446 309.648 150.964 311.72 150.001C313.792 149.009 315.47 147.696 316.754 146.061C318.038 144.398 318.87 142.559 319.25 140.546C319.541 139.553 319.731 138.444 319.819 137.219C319.935 135.993 320.008 134.621 320.038 133.104L317.893 133.366C313.778 133.921 310.611 134.373 308.393 134.723C306.204 135.074 304.205 135.511 302.396 136.037C300.149 136.737 298.354 137.7 297.011 138.926C295.698 140.152 295.041 141.786 295.041 143.829C295.041 145.2 295.377 146.47 296.048 147.637C296.719 148.776 297.77 149.695 299.2 150.395C300.63 151.096 302.41 151.446 304.541 151.446Z" fill="url(#paint0_linear)"/>
<path d="M348.405 112.266C349.718 111.215 351.265 110.413 353.045 109.858C354.825 109.304 356.62 109.027 358.429 109.027C359.568 109.027 360.691 109.143 361.8 109.377V116.688C360.574 116.396 359.392 116.25 358.254 116.25C355.423 116.25 353.001 116.994 350.987 118.482C348.857 120 347.369 121.999 346.522 124.48C345.676 126.931 345.253 129.747 345.253 132.929V156.655H337.417V109.377H344.377V116.863C345.486 114.936 346.829 113.404 348.405 112.266Z" fill="url(#paint1_linear)"/>
<path d="M403.122 117.3C403.735 118.643 404.144 120.131 404.348 121.766C404.552 123.371 404.654 125.253 404.654 127.413V156.655H397.738V149.301C393.973 155.079 388.136 157.969 380.227 157.969C376.813 157.969 373.894 157.341 371.472 156.086C369.05 154.802 367.226 153.095 366 150.964C364.774 148.834 364.161 146.47 364.161 143.873C364.161 136.898 368.028 132.272 375.762 129.995C378.038 129.383 380.65 128.843 383.598 128.376C386.546 127.909 390.077 127.398 394.192 126.844L396.994 126.45C396.877 122.626 395.914 119.825 394.104 118.045C392.295 116.235 389.376 115.33 385.349 115.33C382.372 115.33 379.819 116.016 377.688 117.388C375.587 118.73 374.128 120.802 373.311 123.604L365.912 121.372C367.051 117.14 369.269 113.871 372.566 111.566C375.893 109.231 380.183 108.064 385.437 108.064C389.785 108.064 393.477 108.852 396.512 110.428C399.576 111.974 401.78 114.265 403.122 117.3ZM381.409 151.446C384.123 151.446 386.516 150.964 388.588 150.001C390.661 149.009 392.339 147.696 393.623 146.061C394.907 144.398 395.739 142.559 396.118 140.546C396.41 139.553 396.6 138.444 396.687 137.219C396.804 135.993 396.877 134.621 396.906 133.104L394.761 133.366C390.646 133.921 387.479 134.373 385.261 134.723C383.073 135.074 381.074 135.511 379.264 136.037C377.017 136.737 375.222 137.7 373.88 138.926C372.566 140.152 371.91 141.786 371.91 143.829C371.91 145.2 372.245 146.47 372.917 147.637C373.588 148.776 374.638 149.695 376.068 150.395C377.498 151.096 379.279 151.446 381.409 151.446Z" fill="url(#paint2_linear)"/>
<path d="M454.559 109.377V156.962C454.559 159.793 454.37 162.215 453.99 164.229C453.085 169.161 450.867 172.852 447.336 175.304C443.805 177.755 439.165 178.981 433.415 178.981C429.534 178.981 425.915 178.091 422.559 176.311C419.232 174.56 416.62 171.992 414.723 168.606L421.858 164.841C422.967 167.059 424.558 168.708 426.63 169.788C428.731 170.897 431.008 171.452 433.459 171.452C442.389 171.452 446.811 166.592 446.723 156.874V152.321C445.001 154.131 442.973 155.532 440.638 156.524C438.304 157.487 435.706 157.969 432.846 157.969C428.527 157.969 424.762 156.889 421.552 154.729C418.371 152.54 415.919 149.563 414.198 145.799C412.505 142.005 411.659 137.729 411.659 132.972C411.659 128.244 412.505 123.998 414.198 120.233C415.919 116.439 418.371 113.463 421.552 111.303C424.762 109.143 428.512 108.064 432.802 108.064C435.954 108.064 438.771 108.633 441.251 109.771C443.732 110.909 445.862 112.543 447.643 114.674V109.377H454.559ZM433.809 150.833C438.391 150.833 441.835 149.213 444.141 145.974C446.475 142.734 447.643 138.401 447.643 132.972C447.643 127.544 446.49 123.225 444.184 120.015C441.879 116.804 438.493 115.199 434.028 115.199C430.935 115.199 428.323 115.973 426.192 117.519C424.091 119.066 422.515 121.182 421.464 123.867C420.443 126.523 419.932 129.558 419.932 132.972C419.932 136.416 420.443 139.48 421.464 142.165C422.515 144.85 424.076 146.966 426.148 148.513C428.25 150.06 430.803 150.833 433.809 150.833Z" fill="url(#paint3_linear)"/>
<path d="M485.168 157.969C480.528 157.969 476.486 156.918 473.042 154.817C469.628 152.686 467.001 149.739 465.163 145.974C463.324 142.18 462.405 137.846 462.405 132.972C462.405 128.069 463.339 123.735 465.206 119.971C467.074 116.206 469.73 113.288 473.174 111.215C476.617 109.114 480.616 108.064 485.168 108.064C489.809 108.064 493.851 109.114 497.294 111.215C500.738 113.317 503.379 116.25 505.218 120.015C507.057 123.779 507.976 128.099 507.976 132.972C507.976 137.904 507.042 142.267 505.174 146.061C503.336 149.826 500.694 152.759 497.251 154.86C493.807 156.932 489.78 157.969 485.168 157.969ZM485.168 150.57C489.925 150.57 493.53 148.994 495.981 145.842C498.462 142.661 499.702 138.371 499.702 132.972C499.702 127.515 498.462 123.239 495.981 120.146C493.501 117.023 489.896 115.462 485.168 115.462C480.382 115.462 476.763 117.038 474.312 120.19C471.89 123.342 470.679 127.602 470.679 132.972C470.679 138.43 471.919 142.734 474.399 145.886C476.909 149.009 480.499 150.57 485.168 150.57Z" fill="url(#paint4_linear)"/>
<path d="M538.583 108.151C543.311 108.151 547.076 109.319 549.877 111.653C552.679 113.988 554.634 116.848 555.743 120.233C556.852 123.59 557.407 127.019 557.407 130.521V156.655H549.527V132.972C549.527 127.894 548.535 123.721 546.55 120.452C544.595 117.184 541.312 115.549 536.701 115.549C532.673 115.549 529.492 116.921 527.157 119.664C524.852 122.378 523.699 126.406 523.699 131.747V156.655H515.819V109.377H522.824V115.462C524.604 113.098 526.822 111.288 529.478 110.034C532.162 108.779 535.198 108.151 538.583 108.151Z" fill="url(#paint5_linear)"/>
<path d="M607.005 156.655L602.671 142.997H577.806L573.516 156.655H562.659L582.534 93.6174H597.987L617.861 156.655H607.005ZM580.914 133.147H599.519L590.151 103.817L580.914 133.147Z" fill="url(#paint6_linear)"/>
<path d="M650.072 93.6174C651.998 93.6174 653.676 93.7342 655.106 93.9676C660.417 94.7848 664.416 97.0028 667.101 100.622C669.815 104.211 671.172 108.72 671.172 114.148C671.172 117.68 670.573 120.861 669.377 123.692C668.209 126.523 666.415 128.857 663.992 130.696C661.599 132.535 658.637 133.731 655.106 134.286C653.676 134.519 651.998 134.636 650.072 134.636H634.575V156.655H624.025V93.6174H650.072ZM649.634 124.786C651.268 124.786 652.596 124.64 653.617 124.348C656.04 123.735 657.791 122.466 658.871 120.54C659.98 118.614 660.534 116.483 660.534 114.148C660.534 111.814 659.98 109.683 658.871 107.757C657.791 105.802 656.04 104.518 653.617 103.905C652.567 103.642 651.239 103.511 649.634 103.511H634.575V124.786H649.634Z" fill="url(#paint7_linear)"/>
<path d="M679.066 93.6174H689.617V156.655H679.066V93.6174Z" fill="url(#paint8_linear)"/>
<path fill-rule="evenodd" clip-rule="evenodd" d="M116.737 0.000244141L0 67.3979V202.193L116.737 269.591L233.47 202.193V67.3979L116.737 134.796V0.000244141Z" fill="url(#paint9_linear)"/>
<path fill-rule="evenodd" clip-rule="evenodd" d="M116.737 67.3979L58.3684 101.097V168.495L116.737 202.193L175.105 168.495V101.097L116.737 134.796V67.3979Z" fill="url(#paint10_linear)"/>
<path fill-rule="evenodd" clip-rule="evenodd" d="M116.737 0V67.398L175.105 33.6993L116.737 0Z" fill="url(#paint11_linear)"/>
<path fill-rule="evenodd" clip-rule="evenodd" d="M116.737 67.3981L175.105 101.097V33.6995L116.737 67.3981Z" fill="url(#paint12_linear)"/>
<path fill-rule="evenodd" clip-rule="evenodd" d="M175.105 33.6995L233.47 67.3981L175.105 101.097V33.6995Z" fill="url(#paint13_linear)"/>
<path fill-rule="evenodd" clip-rule="evenodd" d="M116.737 67.3979L175.105 101.097L116.737 134.796V67.3979Z" fill="url(#paint14_linear)"/>
<path fill-rule="evenodd" clip-rule="evenodd" d="M0 202.193L58.3683 168.495L116.737 202.193V269.591L0 202.193Z" fill="url(#paint15_linear)"/>
<defs>
<linearGradient id="paint0_linear" x1="700.755" y1="143.908" x2="647.423" y2="-33.7784" gradientUnits="userSpaceOnUse">
<stop stop-color="#85D6BF"/>
<stop offset="1" stop-color="#C8CF8B"/>
</linearGradient>
<linearGradient id="paint1_linear" x1="700.755" y1="143.908" x2="647.423" y2="-33.7784" gradientUnits="userSpaceOnUse">
<stop stop-color="#85D6BF"/>
<stop offset="1" stop-color="#C8CF8B"/>
</linearGradient>
<linearGradient id="paint2_linear" x1="700.755" y1="143.908" x2="647.423" y2="-33.7784" gradientUnits="userSpaceOnUse">
<stop stop-color="#85D6BF"/>
<stop offset="1" stop-color="#C8CF8B"/>
</linearGradient>
<linearGradient id="paint3_linear" x1="700.755" y1="143.908" x2="647.423" y2="-33.7784" gradientUnits="userSpaceOnUse">
<stop stop-color="#85D6BF"/>
<stop offset="1" stop-color="#C8CF8B"/>
</linearGradient>
<linearGradient id="paint4_linear" x1="700.755" y1="143.908" x2="647.423" y2="-33.7784" gradientUnits="userSpaceOnUse">
<stop stop-color="#85D6BF"/>
<stop offset="1" stop-color="#C8CF8B"/>
</linearGradient>
<linearGradient id="paint5_linear" x1="700.755" y1="143.908" x2="647.423" y2="-33.7784" gradientUnits="userSpaceOnUse">
<stop stop-color="#85D6BF"/>
<stop offset="1" stop-color="#C8CF8B"/>
</linearGradient>
<linearGradient id="paint6_linear" x1="700.755" y1="143.908" x2="647.423" y2="-33.7784" gradientUnits="userSpaceOnUse">
<stop stop-color="#85D6BF"/>
<stop offset="1" stop-color="#C8CF8B"/>
</linearGradient>
<linearGradient id="paint7_linear" x1="700.755" y1="143.908" x2="647.423" y2="-33.7784" gradientUnits="userSpaceOnUse">
<stop stop-color="#85D6BF"/>
<stop offset="1" stop-color="#C8CF8B"/>
</linearGradient>
<linearGradient id="paint8_linear" x1="700.755" y1="143.908" x2="647.423" y2="-33.7784" gradientUnits="userSpaceOnUse">
<stop stop-color="#85D6BF"/>
<stop offset="1" stop-color="#C8CF8B"/>
</linearGradient>
<linearGradient id="paint9_linear" x1="-8.7217" y1="60.0458" x2="214.688" y2="278.759" gradientUnits="userSpaceOnUse">
<stop stop-color="#63D9DA"/>
<stop offset="0.213542" stop-color="#79D7C9"/>
<stop offset="0.364583" stop-color="#88D5BD"/>
<stop offset="1" stop-color="#C8CF8B"/>
</linearGradient>
<linearGradient id="paint10_linear" x1="-12.747" y1="106.338" x2="277.751" y2="185.51" gradientUnits="userSpaceOnUse">
<stop stop-color="#7DE8E9"/>
<stop offset="1" stop-color="#E0E7A4"/>
</linearGradient>
<linearGradient id="paint11_linear" x1="114.556" y1="15.0114" x2="254.941" y2="149.277" gradientUnits="userSpaceOnUse">
<stop stop-color="#63D9DA"/>
<stop offset="1" stop-color="#C8CF8B"/>
</linearGradient>
<linearGradient id="paint12_linear" x1="10.0634" y1="82.0316" x2="141.56" y2="74.6537" gradientUnits="userSpaceOnUse">
<stop stop-color="#74E5E6"/>
<stop offset="1" stop-color="#EFF5BA"/>
</linearGradient>
<linearGradient id="paint13_linear" x1="172.925" y1="48.7107" x2="323.378" y2="169.398" gradientUnits="userSpaceOnUse">
<stop stop-color="#63D9DA"/>
<stop offset="1" stop-color="#C8CF8B"/>
</linearGradient>
<linearGradient id="paint14_linear" x1="10.0634" y1="115.73" x2="141.56" y2="108.352" gradientUnits="userSpaceOnUse">
<stop stop-color="#74E5E6"/>
<stop offset="1" stop-color="#E6EDA8"/>
</linearGradient>
<linearGradient id="paint15_linear" x1="-45.6212" y1="182.149" x2="89.5585" y2="299.755" gradientUnits="userSpaceOnUse">
<stop stop-color="#74E5E6"/>
<stop offset="1" stop-color="#DBE298"/>
</linearGradient>
</defs>
</svg>
